<svg xmlns="http://www.w3.org/2000/svg" xmlns:xlink="http://www.w3.org/1999/xlink" width="160" height="160" version="1.1" viewBox="0 0 160 160"><title>logomark copy</title><desc>Created with Sketch.</desc><g id="Page-1" fill="none" fill-rule="evenodd" stroke="none" stroke-width="1"><g id="logomark-copy"><g id="status-bar" fill="#1BB91F" transform="translate(0.000000, 116.000000)"><path id="Rectangle-5" d="M0,0 L160,0 L160,28.9961276 C160,37.2825375 153.278035,44 145.001535,44 L14.9984654,44 C6.71504169,44 0,37.2934149 0,28.9961276 L0,0 Z M0,0 L160,0 L160,30 L0,30 L0,0 Z"/></g><path id="screen" fill="#3C3C3C" d="M83,70 L83,0 L77,0 L77,146 L83,146 L83,76 L160,76 L160,70 L83,70 Z M0,15.0064867 C0,6.71863293 6.72196489,0 14.9984654,0 L145.001535,0 C153.284958,0 160,6.72491953 160,15.0064867 L160,146 L0,146 L0,15.0064867 Z"/></g></g></svg>